<svg width="16" height="16" viewBox="0 0 16 16" fill="none" xmlns="http://www.w3.org/2000/svg">
<path d="M8 3C3.65688 3 0.24223 7.50891 0.0999436 7.7C-0.0333145 7.87768 -0.0333145 8.12232 0.0999436 8.3C0.243025 8.49197 3.65757 13 8 13C12.3424 13 15.7578 8.49109 15.9001 8.3C16.0333 8.12232 16.0333 7.87768 15.9001 7.7C15.7576 7.50893 12.3431 3 8 3ZM8 12C4.76449 12 1.96224 8.97543 1.14224 8C1.96167 7.02457 4.76438 4 8 4C11.2356 4 14.0378 7.02457 14.8578 8C14.0381 8.97543 11.2356 12 8 12Z" fill="#808080"/>
<path d="M7.99992 5.49999C7.33695 5.49999 6.70106 5.76338 6.23202 6.2321C5.76327 6.70108 5.4999 7.33702 5.4999 7.99999C5.4999 8.66296 5.7633 9.29885 6.23202 9.76788C6.701 10.2366 7.33695 10.5 7.99992 10.5C8.6629 10.5 9.29879 10.2366 9.76782 9.76788C10.2366 9.2989 10.4999 8.66296 10.4999 7.99999C10.499 7.33725 10.2354 6.70176 9.76691 6.23302C9.29815 5.76449 8.66267 5.5009 7.99992 5.49999ZM7.99992 9.49999C7.60215 9.49999 7.22043 9.34196 6.93923 9.0607C6.65803 8.77945 6.49994 8.39773 6.49994 8.00002C6.49994 7.6023 6.65797 7.22053 6.93923 6.93933C7.22048 6.65813 7.60221 6.50005 7.99992 6.50005C8.39764 6.50005 8.77941 6.65808 9.06062 6.93933C9.34182 7.22059 9.4999 7.6023 9.4999 8.00002C9.4999 8.39773 9.34187 8.7795 9.06062 9.0607C8.77936 9.3419 8.39764 9.49999 7.99992 9.49999Z" fill="#808080"/>
</svg>
